<svg version="1.0" xmlns="http://www.w3.org/2000/svg"
 width="32px" height="32px" viewBox="0 0 396.000000 396.000000"
 preserveAspectRatio="xMidYMid meet">

<g transform="translate(0.000000,396.000000) scale(0.100000,-0.100000)"
fill="#fd9902" stroke="none">
<path d="M1719 3735 c-630 -102 -1137 -505 -1373 -1090 -46 -113 -48 -165 -8
-205 40 -39 91 -48 139 -23 35 18 42 31 88 144 28 68 70 156 93 195 226 387
611 657 1057 740 134 25 402 26 530 1 605 -118 1065 -548 1215 -1138 12 -45
20 -83 18 -84 -2 -2 -48 -8 -102 -13 -103 -10 -126 -22 -126 -63 0 -10 77
-102 170 -204 148 -160 175 -185 200 -185 28 0 40 15 166 206 86 129 137 216
137 232 0 42 -28 53 -122 50 l-83 -3 -33 131 c-166 655 -685 1149 -1360 1294
-130 28 -474 37 -606 15z"/>
<path d="M1884 2881 c-45 -27 -72 -67 -79 -114 -6 -41 -9 -43 -78 -76 -97 -46
-185 -134 -217 -216 -35 -90 -35 -229 1 -305 58 -123 130 -170 349 -225 176
-44 231 -67 270 -112 25 -28 30 -42 30 -86 0 -94 -66 -157 -164 -157 -64 0
-106 20 -211 99 -93 71 -135 91 -189 91 -83 0 -151 -83 -144 -175 3 -27 13
-67 23 -89 36 -76 144 -156 275 -205 l55 -21 12 -58 c14 -76 34 -106 89 -133
53 -25 107 -21 161 12 41 26 59 58 68 126 7 51 8 52 52 67 72 25 123 59 186
125 98 102 140 236 119 374 -34 214 -157 316 -480 392 -117 28 -152 44 -181
81 -41 52 -15 136 51 170 41 21 121 22 170 1 20 -8 66 -38 102 -66 106 -81
169 -85 235 -17 27 28 35 45 39 84 6 67 -11 111 -61 163 -39 40 -146 98 -209
114 -20 5 -28 16 -37 49 -12 51 -42 91 -81 111 -41 21 -118 19 -156 -4z"/>
<path d="M283 2168 c-41 -45 -263 -390 -263 -409 0 -10 9 -28 21 -40 18 -18
30 -20 111 -17 l91 3 18 -87 c67 -323 257 -662 500 -893 497 -472 1200 -617
1839 -378 233 87 436 219 620 403 143 143 234 265 318 430 115 223 136 311 88
363 -33 35 -90 50 -130 33 -44 -19 -57 -38 -99 -147 -188 -483 -642 -850
-1162 -939 -513 -88 -1052 102 -1393 490 -138 157 -248 348 -310 536 -31 95
-57 203 -50 210 2 2 38 6 79 10 90 8 119 23 119 65 0 22 -13 44 -47 82 -163
179 -269 293 -278 299 -19 14 -52 8 -72 -14z"/>
</g>
</svg>
